<?xml version="1.0" standalone="no"?>
<!DOCTYPE svg PUBLIC "-//W3C//DTD SVG 20010904//EN"
 "http://www.w3.org/TR/2001/REC-SVG-20010904/DTD/svg10.dtd">
<svg version="1.0" xmlns="http://www.w3.org/2000/svg"
 width="500.000000pt" height="500.000000pt" viewBox="0 0 500.000000 500.000000"
 preserveAspectRatio="xMidYMid meet">
<metadata>
Created by potrace 1.11, written by Peter Selinger 2001-2013
</metadata>
<g transform="translate(0.000000,500.000000) scale(0.100000,-0.100000)"
fill="#000000" stroke="none">
<path d="M1680 3910 c-282 -39 -460 -192 -532 -455 -31 -116 -31 -374 0 -490
34 -126 76 -201 156 -281 127 -127 268 -176 516 -178 251 -2 405 47 526 168
88 88 132 192 148 349 l6 57 -205 0 -205 0 0 -28 c0 -95 -77 -190 -172 -212
-109 -27 -230 5 -282 73 -52 68 -60 107 -60 297 0 142 3 183 17 219 41 105
106 151 223 159 145 9 237 -67 259 -215 l7 -43 210 0 209 0 -6 58 c-18 158
-62 259 -155 353 -113 114 -254 166 -470 174 -69 2 -154 0 -190 -5z"/>
<path d="M3185 2490 c-252 -36 -413 -137 -509 -319 -62 -117 -79 -202 -79
-381 0 -179 17 -264 79 -381 84 -159 209 -251 414 -302 115 -28 357 -30 475
-4 254 58 421 214 487 454 30 112 30 354 0 466 -51 186 -153 314 -314 391 -51
24 -127 52 -168 61 -87 19 -298 28 -385 15z m254 -336 c59 -17 123 -70 150
-123 28 -55 41 -132 41 -241 0 -165 -26 -247 -99 -313 -100 -91 -295 -89 -396
4 -23 22 -53 63 -66 92 -22 48 -24 65 -24 217 0 151 2 169 23 216 61 135 213
195 371 148z"/>
</g>
</svg>
